<?xml version="1.0" encoding="utf-8"?>
<!-- Generator: Adobe Illustrator 22.0.1, SVG Export Plug-In . SVG Version: 6.00 Build 0)  -->
<svg version="1.1" id="Layer_1" xmlns="http://www.w3.org/2000/svg" xmlns:xlink="http://www.w3.org/1999/xlink" x="0px" y="0px"
	 viewBox="0 0 64 64" style="enable-background:new 0 0 64 64;" xml:space="preserve">
<style type="text/css">
	.st0{fill:#2EFF6D;}
	.st1{fill:none;stroke:#055A5E;stroke-miterlimit:10;}
</style>
<path id="XMLID_1273_" class="st0" d="M9,7h46c1.1,0,2,0.9,2,2v46c0,1.1-0.9,2-2,2H9c-1.1,0-2-0.9-2-2V9C7,7.9,7.9,7,9,7z"/>
<g id="XMLID_1267_">
	<g>
		<g id="XMLID_43_">
			<g>
				<path id="XMLID_46_" class="st1" d="M37.2,18.4c-2.9,0-5.2,2.3-5.2,5.2c0-2.9-2.3-5.2-5.2-5.2"/>
				<path id="XMLID_45_" class="st1" d="M37.2,45.6c-2.9,0-5.2-2.3-5.2-5.2c0,2.9-2.3,5.2-5.2,5.2"/>
				<g id="XMLID_44_">
					<line class="st1" x1="32" y1="23.5" x2="32" y2="40.4"/>
				</g>
			</g>
		</g>
		<line id="XMLID_42_" class="st1" x1="30.5" y1="32" x2="33.5" y2="32"/>
	</g>
</g>
</svg>
